{
  "accessors": [
    {
      "bufferView": 2,
      "componentType": 5126,
      "count": 2437,
      "max": [
        14.910995483398438,
        3.1872379779815674,
        4.430540084838867
      ],
      "min": [
        13.447408676147461,
        1.9622529745101929,
        1.0055758953094482
      ],
      "type": "VEC3"
    },
    {
      "bufferView": 2,
      "byteOffset": 29244,
      "componentType": 5126,
      "count": 2437,
      "max": [
        0.9996911883354187,
        0.9989652633666992,
        0.9880322217941284
      ],
      "min": [
        -0.9995282292366028,
        -0.9999072551727295,
        -0.9999899864196777
      ],
      "type": "VEC3"
    },
    {
      "bufferView": 1,
      "componentType": 5126,
      "count": 2437,
      "max": [
        0.9944000244140625,
        0.9955999851226807
      ],
      "min": [
        0.004900000058114529,
        0.02850000001490116
      ],
      "type": "VEC2"
    },
    {
      "bufferView": 0,
      "componentType": 5125,
      "count": 12234,
      "type": "SCALAR"
    },
    {
      "bufferView": 2,
      "byteOffset": 58488,
      "componentType": 5126,
      "count": 4941,
      "max": [
        4.788647651672363,
        4.919078826904297,
        6.364537715911865
      ],
      "min": [
        2.888570785522461,
        3.515343189239502,
        2.705418109893799
      ],
      "type": "VEC3"
    },
    {
      "bufferView": 2,
      "byteOffset": 117780,
      "componentType": 5126,
      "count": 4941,
      "max": [
        0.9999151229858398,
        0.9995971322059631,
        0.9987342953681946
      ],
      "min": [
        -0.9993767738342285,
        -0.9998607635498047,
        -0.9999872446060181
      ],
      "type": "VEC3"
    },
    {
      "bufferView": 1,
      "byteOffset": 19496,
      "componentType": 5126,
      "count": 4941,
      "max": [
        0.9919000267982483,
        0.9937000274658203
      ],
      "min": [
        0.006800000090152025,
        0.00559999980032444
      ],
      "type": "VEC2"
    },
    {
      "bufferView": 0,
      "byteOffset": 48936,
      "componentType": 5125,
      "count": 24042,
      "type": "SCALAR"
    },
    {
      "bufferView": 2,
      "byteOffset": 177072,
      "componentType": 5126,
      "count": 3760,
      "max": [
        8.342596054077148,
        1.015768051147461,
        1.7282049655914307
      ],
      "min": [
        7.190393924713135,
        0.0,
        0.7944689393043518
      ],
      "type": "VEC3"
    },
    {
      "bufferView": 2,
      "byteOffset": 222192,
      "componentType": 5126,
      "count": 3760,
      "max": [
        0.9997519850730896,
        0.9954025149345398,
        0.997640073299408
      ],
      "min": [
        -0.9996166825294495,
        -0.9988849759101868,
        -0.9895437359809875
      ],
      "type": "VEC3"
    },
    {
      "bufferView": 1,
      "byteOffset": 59024,
      "componentType": 5126,
      "count": 3760,
      "max": [
        0.9952999949455261,
        0.9955999851226807
      ],
      "min": [
        0.004800000227987766,
        0.004600000102072954
      ],
      "type": "VEC2"
    },
    {
      "bufferView": 0,
      "byteOffset": 145104,
      "componentType": 5125,
      "count": 15930,
      "type": "SCALAR"
    },
    {
      "bufferView": 2,
      "byteOffset": 267312,
      "componentType": 5126,
      "count": 3390,
      "max": [
        12.327459335327148,
        5.551065921783447,
        6.495093822479248
      ],
      "min": [
        10.814555168151855,
        3.0668890476226807,
        2.776624917984009
      ],
      "type": "VEC3"
    },
    {
      "bufferView": 2,
      "byteOffset": 307992,
      "componentType": 5126,
      "count": 3390,
      "max": [
        1.0,
        0.9998313784599304,
        0.9995782971382141
      ],
      "min": [
        -0.9999529123306274,
        -0.9999417066574097,
        -0.9999903440475464
      ],
      "type": "VEC3"
    },
    {
      "bufferView": 1,
      "byteOffset": 89104,
      "componentType": 5126,
      "count": 3390,
      "max": [
        0.992900013923645,
        0.9941999912261963
      ],
      "min": [
        0.004800000227987766,
        0.004900000058114529
      ],
      "type": "VEC2"
    },
    {
      "bufferView": 0,
      "byteOffset": 208824,
      "componentType": 5125,
      "count": 15552,
      "type": "SCALAR"
    },
    {
      "bufferView": 2,
      "byteOffset": 348672,
      "componentType": 5126,
      "count": 4352,
      "max": [
        4.487798690795898,
        2.723940134048462,
        4.1047468185424805
      ],
      "min": [
        2.0816187858581543,
        0.9366399645805359,
        0.2555539608001709
      ],
      "type": "VEC3"
    },
    {
      "bufferView": 2,
      "byteOffset": 400896,
      "componentType": 5126,
      "count": 4352,
      "max": [
        0.9995142817497253,
        0.9996498227119446,
        0.9998219609260559
      ],
      "min": [
        -0.9998343586921692,
        -0.9998664855957031,
        -0.9999963045120239
      ],
      "type": "VEC3"
    },
    {
      "bufferView": 1,
      "byteOffset": 116224,
      "componentType": 5126,
      "count": 4352,
      "max": [
        0.9891999959945679,
        0.9958999752998352
      ],
      "min": [
        0.005400000140070915,
        0.004000000189989805
      ],
      "type": "VEC2"
    },
    {
      "bufferView": 0,
      "byteOffset": 271032,
      "componentType": 5125,
      "count": 20067,
      "type": "SCALAR"
    },
    {
      "bufferView": 2,
      "byteOffset": 453120,
      "componentType": 5126,
      "count": 6450,
      "max": [
        7.350030899047852,
        3.745307207107544,
        5.046595096588135
      ],
      "min": [
        4.971236228942871,
        2.0826830863952637,
        0.9946289658546448
      ],
      "type": "VEC3"
    },
    {
      "bufferView": 2,
      "byteOffset": 530520,
      "componentType": 5126,
      "count": 6450,
      "max": [
        0.9999535083770752,
        0.9999680519104004,
        0.9975814819335938
      ],
      "min": [
        -0.9995077252388,
        -0.9999822378158569,
        -0.9999409914016724
      ],
      "type": "VEC3"
    },
    {
      "bufferView": 1,
      "byteOffset": 151040,
      "componentType": 5126,
      "count": 6450,
      "max": [
        0.9940999746322632,
        0.9995999932289124
      ],
      "min": [
        0.0035000001080334187,
        0.00419999985024333
      ],
      "type": "VEC2"
    },
    {
      "bufferView": 0,
      "byteOffset": 351300,
      "componentType": 5125,
      "count": 23529,
      "type": "SCALAR"
    },
    {
      "bufferView": 2,
      "byteOffset": 607920,
      "componentType": 5126,
      "count": 1015,
      "max": [
        6.534920692443848,
        0.8919599652290344,
        1.5427169799804688
      ],
      "min": [
        5.650436878204346,
        0.2294040024280548,
        0.00527799129486084
      ],
      "type": "VEC3"
    },
    {
      "bufferView": 2,
      "byteOffset": 620100,
      "componentType": 5126,
      "count": 1015,
      "max": [
        0.999874472618103,
        0.9999116659164429,
        0.9996024966239929
      ],
      "min": [
        -0.9997147917747498,
        -0.9999850988388062,
        -0.9999454021453857
      ],
      "type": "VEC3"
    },
    {
      "bufferView": 1,
      "byteOffset": 202640,
      "componentType": 5126,
      "count": 1015,
      "max": [
        0.9932000041007996,
        0.9908000230789185
      ],
      "min": [
        0.010300000198185444,
        0.01720000058412552
      ],
      "type": "VEC2"
    },
    {
      "bufferView": 0,
      "byteOffset": 445416,
      "componentType": 5125,
      "count": 5124,
      "type": "SCALAR"
    },
    {
      "bufferView": 2,
      "byteOffset": 632280,
      "componentType": 5126,
      "count": 14316,
      "max": [
        1.4968929290771484,
        3.2279980182647705,
        4.193437099456787
      ],
      "min": [
        0.0,
        1.939386010169983,
        1.0293428897857666
      ],
      "type": "VEC3"
    },
    {
      "bufferView": 2,
      "byteOffset": 804072,
      "componentType": 5126,
      "count": 14316,
      "max": [
        0.9998905658721924,
        0.9999760389328003,
        0.9977689385414124
      ],
      "min": [
        -0.9998832941055298,
        -0.9991452693939209,
        -0.9999855756759644
      ],
      "type": "VEC3"
    },
    {
      "bufferView": 1,
      "byteOffset": 210760,
      "componentType": 5126,
      "count": 14316,
      "max": [
        0.9883999824523926,
        0.9951000213623047
      ],
      "min": [
        0.0038999998942017555,
        0.004800000227987766
      ],
      "type": "VEC2"
    },
    {
      "bufferView": 0,
      "byteOffset": 465912,
      "componentType": 5125,
      "count": 14322,
      "type": "SCALAR"
    },
    {
      "bufferView": 2,
      "byteOffset": 975864,
      "componentType": 5126,
      "count": 24331,
      "max": [
        10.381665229797363,
        3.886773109436035,
        4.948075771331787
      ],
      "min": [
        8.070549964904785,
        2.2214810848236084,
        0.9973809719085693
      ],
      "type": "VEC3"
    },
    {
      "bufferView": 2,
      "byteOffset": 1267836,
      "componentType": 5126,
      "count": 24331,
      "max": [
        0.9999308586120605,
        0.9999563694000244,
        0.9998642206192017
      ],
      "min": [
        -0.9999678134918213,
        -0.9999039173126221,
        -0.9999852180480957
      ],
      "type": "VEC3"
    },
    {
      "bufferView": 1,
      "byteOffset": 325288,
      "componentType": 5126,
      "count": 24331,
      "max": [
        0.9929999709129333,
        0.9997000098228455
      ],
      "min": [
        0.0035000001080334187,
        0.00419999985024333
      ],
      "type": "VEC2"
    },
    {
      "bufferView": 0,
      "byteOffset": 523200,
      "componentType": 5125,
      "count": 24333,
      "type": "SCALAR"
    },
    {
      "bufferView": 2,
      "byteOffset": 1559808,
      "componentType": 5126,
      "count": 3152,
      "max": [
        9.706409454345703,
        0.8893479704856873,
        1.4899929761886597
      ],
      "min": [
        8.933976173400879,
        0.2016420066356659,
        0.0
      ],
      "type": "VEC3"
    },
    {
      "bufferView": 2,
      "byteOffset": 1597632,
      "componentType": 5126,
      "count": 3152,
      "max": [
        0.9998914003372192,
        0.9995327591896057,
        0.9992232322692871
      ],
      "min": [
        -0.9998329281806946,
        -0.9999446868896484,
        -0.9999902248382568
      ],
      "type": "VEC3"
    },
    {
      "bufferView": 1,
      "byteOffset": 519936,
      "componentType": 5126,
      "count": 3152,
      "max": [
        0.9952999949455261,
        0.9923999905586243
      ],
      "min": [
        0.004000000189989805,
        0.005499999970197678
      ],
      "type": "VEC2"
    },
    {
      "bufferView": 0,
      "byteOffset": 620532,
      "componentType": 5125,
      "count": 16200,
      "type": "SCALAR"
    },
    {
      "bufferView": 2,
      "byteOffset": 1635456,
      "componentType": 5126,
      "count": 4568,
      "max": [
        12.907402038574219,
        2.629242181777954,
        4.183020114898682
      ],
      "min": [
        11.04540729522705,
        1.1290079355239868,
        0.22751593589782715
      ],
      "type": "VEC3"
    },
    {
      "bufferView": 2,
      "byteOffset": 1690272,
      "componentType": 5126,
      "count": 4568,
      "max": [
        0.9997923970222473,
        0.9999542236328125,
        0.9999349117279053
      ],
      "min": [
        -0.9999892711639404,
        -0.9992486834526062,
        -0.9959806203842163
      ],
      "type": "VEC3"
    },
    {
      "bufferView": 1,
      "byteOffset": 545152,
      "componentType": 5126,
      "count": 4568,
      "max": [
        0.9930999875068665,
        0.9954000115394592
      ],
      "min": [
        0.004800000227987766,
        0.00419999985024333
      ],
      "type": "VEC2"
    },
    {
      "bufferView": 0,
      "byteOffset": 685332,
      "componentType": 5125,
      "count": 19470,
      "type": "SCALAR"
    }
  ],
  "asset": {
    "extras": {
      "author": "The British Museum (https://sketchfab.com/britishmuseum)",
      "license": "CC-BY-NC-4.0 (http://creativecommons.org/licenses/by-nc/4.0/)",
      "source": "https://sketchfab.com/3d-models/lewis-chess-set-eddbebab12424c8aa610a21b9b7e19e5",
      "title": "Lewis Chess Set"
    },
    "generator": "Sketchfab-12.64.0",
    "version": "2.0"
  },
  "bufferViews": [
    {
      "buffer": 0,
      "byteLength": 763212,
      "name": "floatBufferViews",
      "target": 34963
    },
    {
      "buffer": 0,
      "byteLength": 581696,
      "byteOffset": 763212,
      "byteStride": 8,
      "name": "floatBufferViews",
      "target": 34962
    },
    {
      "buffer": 0,
      "byteLength": 1745088,
      "byteOffset": 1344908,
      "byteStride": 12,
      "name": "floatBufferViews",
      "target": 34962
    }
  ],
  "buffers": [
    {
      "byteLength": 3089996,
      "uri": "scene.bin"
    }
  ],
  "extensionsUsed": [
    "KHR_materials_unlit"
  ],
  "images": [
    {
      "uri": "textures/beserkerTwo_baseColor.jpeg"
    },
    {
      "uri": "textures/bishop_baseColor.jpeg"
    },
    {
      "uri": "textures/draught154_baseColor.jpeg"
    },
    {
      "uri": "textures/knight_baseColor.jpeg"
    },
    {
      "uri": "textures/lewis86_baseColor.jpeg"
    },
    {
      "uri": "textures/lewisKing82_baseColor.jpeg"
    },
    {
      "uri": "textures/lewisPawn126_baseColor.jpeg"
    },
    {
      "uri": "textures/model_baseColor.jpeg"
    },
    {
      "uri": "textures/model.001_baseColor.jpeg"
    },
    {
      "uri": "textures/pawn131_baseColor.jpeg"
    },
    {
      "uri": "textures/queen_baseColor.jpeg"
    }
  ],
  "materials": [
    {
      "doubleSided": true,
      "extensions": {
        "KHR_materials_unlit": {}
      },
      "name": "beserkerTwo",
      "pbrMetallicRoughness": {
        "baseColorTexture": {
          "index": 0
        },
        "metallicFactor": 0.0
      }
    },
    {
      "doubleSided": true,
      "extensions": {
        "KHR_materials_unlit": {}
      },
      "name": "bishop",
      "pbrMetallicRoughness": {
        "baseColorTexture": {
          "index": 1
        },
        "metallicFactor": 0.0
      }
    },
    {
      "doubleSided": true,
      "extensions": {
        "KHR_materials_unlit": {}
      },
      "name": "draught154",
      "pbrMetallicRoughness": {
        "baseColorTexture": {
          "index": 2
        },
        "metallicFactor": 0.0
      }
    },
    {
      "doubleSided": true,
      "extensions": {
        "KHR_materials_unlit": {}
      },
      "name": "knight",
      "pbrMetallicRoughness": {
        "baseColorTexture": {
          "index": 3
        },
        "metallicFactor": 0.0
      }
    },
    {
      "doubleSided": true,
      "extensions": {
        "KHR_materials_unlit": {}
      },
      "name": "lewis86",
      "pbrMetallicRoughness": {
        "baseColorTexture": {
          "index": 4
        },
        "metallicFactor": 0.0
      }
    },
    {
      "doubleSided": true,
      "extensions": {
        "KHR_materials_unlit": {}
      },
      "name": "lewisKing82",
      "pbrMetallicRoughness": {
        "baseColorTexture": {
          "index": 5
        },
        "metallicFactor": 0.0
      }
    },
    {
      "doubleSided": true,
      "extensions": {
        "KHR_materials_unlit": {}
      },
      "name": "lewisPawn126",
      "pbrMetallicRoughness": {
        "baseColorTexture": {
          "index": 6
        },
        "metallicFactor": 0.0
      }
    },
    {
      "doubleSided": true,
      "extensions": {
        "KHR_materials_unlit": {}
      },
      "name": "model",
      "pbrMetallicRoughness": {
        "baseColorTexture": {
          "index": 7
        },
        "metallicFactor": 0.0
      }
    },
    {
      "doubleSided": true,
      "extensions": {
        "KHR_materials_unlit": {}
      },
      "name": "model.001",
      "pbrMetallicRoughness": {
        "baseColorTexture": {
          "index": 8
        },
        "metallicFactor": 0.0
      }
    },
    {
      "doubleSided": true,
      "extensions": {
        "KHR_materials_unlit": {}
      },
      "name": "pawn131",
      "pbrMetallicRoughness": {
        "baseColorTexture": {
          "index": 9
        },
        "metallicFactor": 0.0
      }
    },
    {
      "doubleSided": true,
      "extensions": {
        "KHR_materials_unlit": {}
      },
      "name": "queen",
      "pbrMetallicRoughness": {
        "baseColorTexture": {
          "index": 10
        },
        "metallicFactor": 0.0
      }
    }
  ],
  "meshes": [
    {
      "name": "Object_0",
      "primitives": [
        {
          "attributes": {
            "NORMAL": 1,
            "POSITION": 0,
            "TEXCOORD_0": 2
          },
          "indices": 3,
          "material": 0,
          "mode": 4
        }
      ]
    },
    {
      "name": "Object_1",
      "primitives": [
        {
          "attributes": {
            "NORMAL": 5,
            "POSITION": 4,
            "TEXCOORD_0": 6
          },
          "indices": 7,
          "material": 1,
          "mode": 4
        }
      ]
    },
    {
      "name": "Object_2",
      "primitives": [
        {
          "attributes": {
            "NORMAL": 9,
            "POSITION": 8,
            "TEXCOORD_0": 10
          },
          "indices": 11,
          "material": 2,
          "mode": 4
        }
      ]
    },
    {
      "name": "Object_3",
      "primitives": [
        {
          "attributes": {
            "NORMAL": 13,
            "POSITION": 12,
            "TEXCOORD_0": 14
          },
          "indices": 15,
          "material": 3,
          "mode": 4
        }
      ]
    },
    {
      "name": "Object_4",
      "primitives": [
        {
          "attributes": {
            "NORMAL": 17,
            "POSITION": 16,
            "TEXCOORD_0": 18
          },
          "indices": 19,
          "material": 4,
          "mode": 4
        }
      ]
    },
    {
      "name": "Object_5",
      "primitives": [
        {
          "attributes": {
            "NORMAL": 21,
            "POSITION": 20,
            "TEXCOORD_0": 22
          },
          "indices": 23,
          "material": 5,
          "mode": 4
        }
      ]
    },
    {
      "name": "Object_6",
      "primitives": [
        {
          "attributes": {
            "NORMAL": 25,
            "POSITION": 24,
            "TEXCOORD_0": 26
          },
          "indices": 27,
          "material": 6,
          "mode": 4
        }
      ]
    },
    {
      "name": "Object_7",
      "primitives": [
        {
          "attributes": {
            "NORMAL": 29,
            "POSITION": 28,
            "TEXCOORD_0": 30
          },
          "indices": 31,
          "material": 7,
          "mode": 4
        }
      ]
    },
    {
      "name": "Object_8",
      "primitives": [
        {
          "attributes": {
            "NORMAL": 33,
            "POSITION": 32,
            "TEXCOORD_0": 34
          },
          "indices": 35,
          "material": 8,
          "mode": 4
        }
      ]
    },
    {
      "name": "Object_9",
      "primitives": [
        {
          "attributes": {
            "NORMAL": 37,
            "POSITION": 36,
            "TEXCOORD_0": 38
          },
          "indices": 39,
          "material": 9,
          "mode": 4
        }
      ]
    },
    {
      "name": "Object_10",
      "primitives": [
        {
          "attributes": {
            "NORMAL": 41,
            "POSITION": 40,
            "TEXCOORD_0": 42
          },
          "indices": 43,
          "material": 10,
          "mode": 4
        }
      ]
    }
  ],
  "nodes": [
    {
      "children": [
        1
      ],
      "matrix": [
        0.5,
        0.0,
        0.0,
        0.0,
        0.0,
        1.1102230246251565e-16,
        -0.5,
        0.0,
        0.0,
        0.5,
        1.1102230246251565e-16,
        0.0,
        0.0,
        0.0,
        0.0,
        1.0
      ],
      "name": "Sketchfab_model"
    },
    {
      "children": [
        2
      ],
      "matrix": [
        1.0,
        0.0,
        0.0,
        0.0,
        0.0,
        1.0,
        0.0,
        0.0,
        0.0,
        0.0,
        1.0,
        0.0,
        -7.656888961791992,
        -0.04125799983739853,
        -1.1207629442214966,
        1.0
      ],
      "name": "lewis-chessset-combined.obj.cleaner.materialmerger.gles"
    },
    {
      "children": [
        3,
        4,
        5,
        6,
        7,
        8,
        9,
        10,
        11,
        12,
        13
      ],
      "name": "Object_2"
    },
    {
      "mesh": 0,
      "name": "Object_3"
    },
    {
      "mesh": 1,
      "name": "Object_4"
    },
    {
      "mesh": 2,
      "name": "Object_5"
    },
    {
      "mesh": 3,
      "name": "Object_6"
    },
    {
      "mesh": 4,
      "name": "Object_7"
    },
    {
      "mesh": 5,
      "name": "Object_8"
    },
    {
      "mesh": 6,
      "name": "Object_9"
    },
    {
      "mesh": 7,
      "name": "Object_10"
    },
    {
      "mesh": 8,
      "name": "Object_11"
    },
    {
      "mesh": 9,
      "name": "Object_12"
    },
    {
      "mesh": 10,
      "name": "Object_13"
    }
  ],
  "samplers": [
    {
      "magFilter": 9729,
      "minFilter": 9987,
      "wrapS": 10497,
      "wrapT": 10497
    }
  ],
  "scene": 0,
  "scenes": [
    {
      "name": "Sketchfab_Scene",
      "nodes": [
        0
      ]
    }
  ],
  "textures": [
    {
      "sampler": 0,
      "source": 0
    },
    {
      "sampler": 0,
      "source": 1
    },
    {
      "sampler": 0,
      "source": 2
    },
    {
      "sampler": 0,
      "source": 3
    },
    {
      "sampler": 0,
      "source": 4
    },
    {
      "sampler": 0,
      "source": 5
    },
    {
      "sampler": 0,
      "source": 6
    },
    {
      "sampler": 0,
      "source": 7
    },
    {
      "sampler": 0,
      "source": 8
    },
    {
      "sampler": 0,
      "source": 9
    },
    {
      "sampler": 0,
      "source": 10
    }
  ]
}
